<svg width="37" height="38" fill="none" xmlns="http://www.w3.org/2000/svg"><path d="M8.657 17.715a13.352 13.352 0 0 1-.157-2.048c0-7.364 6.008-13.334 13.42-13.334 7.413 0 13.422 5.97 13.422 13.334 0 1.663-.307 3.255-.867 4.724-.116.305-.175.457-.201.576a1.497 1.497 0 0 0-.04.322 3.88 3.88 0 0 0 .048.525l.67 5.45c.073.59.11.885.011 1.1a.833.833 0 0 1-.428.418c-.217.094-.511.05-1.1-.036l-5.308-.778a3.86 3.86 0 0 0-.542-.06c-.125 0-.211.01-.334.035-.123.026-.28.086-.596.204a13.62 13.62 0 0 1-6.784.699m-8.652 6.82c4.941 0 8.947-4.103 8.947-9.166 0-5.063-4.006-9.167-8.947-9.167-4.942 0-8.947 4.104-8.947 9.167 0 1.018.161 1.996.46 2.911.127.387.19.58.21.712.022.138.026.215.018.355-.008.133-.041.284-.108.586l-1.019 4.603 4.991-.682c.273-.037.409-.056.528-.055.125 0 .192.008.315.032.116.023.29.084.636.207a8.743 8.743 0 0 0 2.916.498Z" stroke="#fff" stroke-width="3" stroke-linecap="round" stroke-linejoin="round"/></svg>