<svg width="40" height="32" fill="none" xmlns="http://www.w3.org/2000/svg"><path d="m15.402.746-1.074.129s-4.818.526-8.336 3.352H5.95l-.043.043c-.79.725-1.133 1.616-1.676 2.921a42.196 42.196 0 0 0-1.632 4.813C1.578 15.694.75 20.163.75 24.25v.344l.172.343c1.273 2.235 3.534 3.658 5.629 4.641 2.095.983 3.905 1.504 5.156 1.547l.816.043.43-.73 1.504-2.665a25.04 25.04 0 0 0 5.543.602c2.11 0 3.948-.242 5.543-.602l1.504 2.665.43.73.816-.043c1.251-.043 3.062-.564 5.156-1.547 2.095-.983 4.356-2.406 5.63-4.64l.171-.344v-.344c0-4.087-.827-8.556-1.848-12.246A42.182 42.182 0 0 0 35.77 7.19c-.542-1.305-.886-2.196-1.675-2.921l-.043-.043h-.043C30.49 1.4 25.672.875 25.672.875L24.598.746l-.387.988s-.397 1.005-.645 2.149A27.632 27.632 0 0 0 20 3.625c-.736 0-2.009.048-3.566.258-.248-1.144-.645-2.149-.645-2.149l-.387-.988Zm-1.89 3.137c.059.193.118.36.172.515-1.778.44-3.674 1.112-5.414 2.192l1.46 2.32C13.297 6.697 18.42 6.375 20 6.375s6.703.322 10.27 2.535l1.46-2.32c-1.74-1.08-3.636-1.751-5.414-2.192.054-.155.113-.322.172-.515 1.284.258 3.733.848 5.758 2.449-.01.005.516.8.988 1.934.484 1.165 1.02 2.717 1.504 4.468.93 3.357 1.66 7.445 1.719 11.043-.865 1.322-2.47 2.514-4.168 3.309a13.403 13.403 0 0 1-3.352 1.074L28.25 27c.408-.15.811-.317 1.16-.473 2.116-.929 3.266-1.933 3.266-1.933L30.87 22.53s-.773.71-2.578 1.504c-1.805.795-4.56 1.59-8.293 1.59-3.733 0-6.488-.795-8.293-1.59-1.805-.795-2.578-1.504-2.578-1.504l-1.805 2.063s1.15 1.004 3.266 1.933c.349.156.752.323 1.16.473l-.688 1.16a13.402 13.402 0 0 1-3.351-1.074c-1.697-.795-3.303-1.987-4.168-3.309.06-3.598.79-7.686 1.719-11.043.483-1.75 1.02-3.303 1.504-4.468.472-1.134.999-1.929.988-1.934 2.025-1.6 4.474-2.191 5.758-2.45Zm1.675 9.367c-1.063 0-2.003.607-2.578 1.375-.574.768-.859 1.713-.859 2.75s.285 1.982.86 2.75c.574.768 1.514 1.375 2.578 1.375 1.063 0 2.003-.607 2.578-1.375.574-.768.859-1.713.859-2.75s-.285-1.982-.86-2.75c-.574-.768-1.514-1.375-2.578-1.375Zm9.626 0c-1.064 0-2.004.607-2.579 1.375-.574.768-.859 1.713-.859 2.75s.285 1.982.86 2.75c.574.768 1.514 1.375 2.578 1.375 1.063 0 2.003-.607 2.578-1.375.574-.768.859-1.713.859-2.75s-.285-1.982-.86-2.75c-.574-.768-1.514-1.375-2.578-1.375ZM15.188 16c.075 0 .171.027.343.258.172.23.344.634.344 1.117s-.172.886-.344 1.117c-.172.231-.268.258-.344.258-.075 0-.171-.027-.343-.258a1.927 1.927 0 0 1-.344-1.117c0-.483.172-.886.344-1.117.172-.231.268-.258.344-.258Zm9.624 0c.076 0 .172.027.344.258.172.23.344.634.344 1.117s-.172.886-.344 1.117c-.172.231-.268.258-.343.258-.076 0-.172-.027-.344-.258a1.927 1.927 0 0 1-.344-1.117c0-.483.172-.886.344-1.117.172-.231.268-.258.343-.258Z" fill="#fff"/></svg>