<svg width="192" height="36" fill="none" xmlns="http://www.w3.org/2000/svg"><path d="M39.986 19.773c0-6.119 4.465-10.604 10.802-10.604 6.338 0 10.7 4.485 10.7 10.604v1.735H45.059c.66 2.957 2.882 4.486 5.73 4.486 2.13 0 3.75-.612 4.765-1.932h5.172c-1.521 3.81-5.172 6.315-9.886 6.315-6.39 0-10.854-4.486-10.854-10.604Zm16.378-2.142c-.759-2.701-2.94-4.028-5.576-4.028-2.738 0-4.803 1.378-5.578 4.028h11.154Zm6.642 1.736c0-6.73 3.955-10.198 9.89-10.198 5.933 0 9.885 3.416 9.885 10.198v10.5h-4.803v-10.5c0-3.826-2.028-5.661-5.07-5.661-3.042 0-5.07 1.835-5.07 5.661v10.5h-4.803l-.03-10.5Zm21.399 4.537h4.868c.051 1.324 1.217 2.254 3.549 2.254 2.485 0 3.548-1.017 3.548-2.254 0-1.53-1.774-1.735-3.955-2.041-3.09-.406-7.603-.918-7.603-5.861 0-4.132 3.142-6.833 7.958-6.833 4.92 0 7.91 2.753 8.006 6.32h-4.758c-.103-1.223-1.281-2.089-3.145-2.089-2.13 0-3.145 1.02-3.145 2.193 0 1.53 1.825 1.784 3.955 2.09 2.687.357 7.606.918 7.606 5.915 0 4.077-3.296 6.763-8.416 6.763-5.121 0-8.365-2.686-8.468-6.457ZM103.47.909h4.803v11.625a6.711 6.711 0 0 1 2.53-2.512 6.657 6.657 0 0 1 3.453-.853c4.615 0 9.028 3.007 9.028 10.198v10.5h-4.791v-10.5c0-3.826-2.044-5.664-5.086-5.664-2.94 0-5.069 1.932-5.069 5.66v10.505h-4.804V.908h-.064Zm22.106 17.234v11.725h4.804V18.143c0-3.265 1.624-4.437 3.955-4.437V9.169c-5.159 0-8.759 2.904-8.759 8.974Zm14.908-14.278a3.246 3.246 0 0 1 .854-2.327 3.213 3.213 0 0 1 4.554-.18 3.248 3.248 0 0 1 1.032 2.253v.254a3.246 3.246 0 0 1-.978 2.224 3.212 3.212 0 0 1-4.484 0 3.246 3.246 0 0 1-.978-2.224Zm.81 5.355h4.804v20.648h-4.804V9.22Zm7.859 10.147c0-6.73 3.955-10.198 9.89-10.198 5.934 0 9.886 3.416 9.886 10.198v10.5h-4.804v-10.5c0-3.826-2.027-5.661-5.07-5.661-3.042 0-5.072 1.835-5.072 5.661v10.5h-4.804l-.026-10.5Zm21.348.406c0-6.119 4.461-10.604 10.799-10.604 6.338 0 10.699 4.485 10.699 10.604v1.735h-16.428c.659 2.957 2.882 4.486 5.729 4.486 2.129 0 3.753-.612 4.768-1.932h5.169c-1.518 3.81-5.172 6.315-9.886 6.315-6.389 0-10.85-4.486-10.85-10.604Zm16.378-2.142c-.763-2.701-2.94-4.028-5.579-4.028-2.738 0-4.804 1.378-5.576 4.028h11.155Z" fill="#18191A"/><path d="M138.86 9.169h-4.675v4.537h4.675V9.169Z" fill="#18191A"/><path d="M27.541 7.968H4.483V30.83h23.058V7.968Z" fill="#fff"/><path d="M4.804 3.298a4.79 4.79 0 0 0-3.397 1.415A4.844 4.844 0 0 0 0 8.13V35.5h27.221a4.79 4.79 0 0 0 3.397-1.415 4.844 4.844 0 0 0 1.407-3.415V3.298H4.804Zm12.81 27.372H4.804V17.79h5.124v7.727h7.686v5.153Zm9.607-17.39v7.73h-5.124v-7.73h-7.686V8.13h12.81v5.152Z" fill="url(#a)"/><defs><linearGradient id="a" x1="0" y1="19.399" x2="32.025" y2="19.399" gradientUnits="userSpaceOnUse"><stop stop-color="#884B9C"/><stop offset=".6" stop-color="#D76D78"/><stop offset="1" stop-color="#F9AD7B"/></linearGradient></defs></svg>