<svg width="40" height="40" fill="none" xmlns="http://www.w3.org/2000/svg"><path d="M20 25a5 5 0 1 0 0-10 5 5 0 0 0 0 10Z" stroke="#fff" stroke-width="3" stroke-linecap="round" stroke-linejoin="round"/><path d="M31.21 24.546a2.5 2.5 0 0 0 .5 2.757l.092.091a3.027 3.027 0 0 1 .657 3.304 3.031 3.031 0 0 1-2.801 1.873 3.03 3.03 0 0 1-2.144-.89l-.091-.09a2.5 2.5 0 0 0-2.758-.5 2.5 2.5 0 0 0-1.515 2.288v.257a3.03 3.03 0 1 1-6.06 0V33.5a2.5 2.5 0 0 0-1.637-2.288 2.502 2.502 0 0 0-2.757.5l-.091.091a3.03 3.03 0 0 1-5.177-2.144 3.03 3.03 0 0 1 .889-2.144l.09-.09a2.5 2.5 0 0 0 .5-2.758A2.5 2.5 0 0 0 6.62 23.15h-.258a3.03 3.03 0 1 1 0-6.06H6.5a2.5 2.5 0 0 0 2.288-1.637 2.5 2.5 0 0 0-.5-2.757l-.091-.091a3.03 3.03 0 0 1 .983-4.946 3.03 3.03 0 0 1 3.304.658l.091.091a2.5 2.5 0 0 0 2.758.5h.121a2.5 2.5 0 0 0 1.515-2.288v-.257a3.03 3.03 0 0 1 6.061 0V6.5a2.499 2.499 0 0 0 1.515 2.288 2.5 2.5 0 0 0 2.758-.5l.09-.091a3.027 3.027 0 0 1 4.288 0 3.031 3.031 0 0 1 0 4.288l-.09.09a2.501 2.501 0 0 0-.5 2.758v.121a2.5 2.5 0 0 0 2.287 1.516h.258a3.03 3.03 0 0 1 0 6.06H33.5a2.497 2.497 0 0 0-2.288 1.515Z" stroke="#fff" stroke-width="3" stroke-linecap="round" stroke-linejoin="round"/></svg>