<svg width="40" height="40" viewBox="0 0 40 40" fill="none" xmlns="http://www.w3.org/2000/svg">
<path d="M20 25C22.7615 25 25 22.7615 25 20C25 17.2385 22.7615 15 20 15C17.2385 15 15 17.2385 15 20C15 22.7615 17.2385 25 20 25Z" stroke="white" stroke-width="3" stroke-linecap="round" stroke-linejoin="round"/>
<path d="M31.2109 24.5455C31.0092 25.0025 30.949 25.5093 31.038 26.0008C31.1272 26.4923 31.3615 26.946 31.7109 27.303L31.8017 27.394C32.0835 27.6753 32.307 28.0095 32.4595 28.3775C32.612 28.7453 32.6905 29.1396 32.6905 29.5378C32.6905 29.9361 32.612 30.3305 32.4595 30.6983C32.307 31.0661 32.0835 31.4003 31.8017 31.6818C31.5204 31.9635 31.186 32.187 30.8182 32.3395C30.4504 32.492 30.056 32.5705 29.6579 32.5705C29.2595 32.5705 28.8652 32.492 28.4974 32.3395C28.1295 32.187 27.7954 31.9635 27.5139 31.6818L27.4229 31.5908C27.0659 31.2416 26.6124 31.0073 26.1209 30.9181C25.6294 30.829 25.1224 30.8891 24.6654 31.0908C24.2172 31.283 23.835 31.6018 23.5659 32.0083C23.2967 32.4148 23.1522 32.8911 23.1502 33.3788V33.6363C23.1502 34.44 22.831 35.2108 22.2627 35.7791C21.6944 36.3473 20.9235 36.6666 20.1199 36.6666C19.3162 36.6666 18.5455 36.3473 17.9772 35.7791C17.4089 35.2108 17.0895 34.44 17.0895 33.6363V33.5C17.0779 32.9985 16.9155 32.5121 16.6237 32.1041C16.3319 31.696 15.924 31.3853 15.4532 31.2121C14.9962 31.0105 14.4893 30.9503 13.9978 31.0393C13.5063 31.1285 13.0528 31.3628 12.6957 31.7121L12.6048 31.803C12.3233 32.0848 11.9891 32.3083 11.6212 32.4608C11.2534 32.6133 10.859 32.6918 10.4608 32.6918C10.0626 32.6918 9.66826 32.6133 9.3004 32.4608C8.93251 32.3083 8.59831 32.0848 8.31688 31.803C8.03513 31.5216 7.81161 31.1873 7.65913 30.8195C7.50663 30.4516 7.42813 30.0573 7.42813 29.6591C7.42813 29.2608 7.50663 28.8665 7.65913 28.4986C7.81161 28.1308 8.03513 27.7966 8.31688 27.5151L8.40778 27.4241C8.75708 27.0671 8.9914 26.6136 9.08053 26.1221C9.16965 25.6306 9.10948 25.1236 8.90778 24.6666C8.71573 24.2185 8.39681 23.8363 7.99031 23.5671C7.58381 23.298 7.10746 23.1535 6.61991 23.1515H6.36233C5.55865 23.1515 4.78788 22.8323 4.21958 22.264C3.6513 21.6956 3.33203 20.9248 3.33203 20.1211C3.33203 19.3175 3.6513 18.5468 4.21958 17.9785C4.78788 17.4101 5.55865 17.0908 6.36233 17.0908H6.4987C7.0002 17.0791 7.48658 16.9168 7.8946 16.625C8.30263 16.3332 8.61341 15.9253 8.78658 15.4545C8.98826 14.9975 9.04843 14.4906 8.95931 13.9991C8.8702 13.5076 8.63588 13.054 8.28658 12.6969L8.19566 12.606C7.91391 12.3246 7.69041 11.9904 7.53791 11.6225C7.38541 11.2546 7.30691 10.8603 7.30691 10.4621C7.30691 10.0639 7.38541 9.66955 7.53791 9.30168C7.69041 8.9338 7.91391 8.5996 8.19566 8.31816C8.4771 8.03641 8.81131 7.8129 9.17918 7.66041C9.54705 7.50791 9.94138 7.42941 10.3396 7.42941C10.7378 7.42941 11.1322 7.50791 11.5 7.66041C11.8679 7.8129 12.2021 8.03641 12.4835 8.31816L12.5744 8.40906C12.9315 8.75836 13.3851 8.99268 13.8766 9.08181C14.3681 9.17093 14.875 9.11076 15.332 8.90906H15.4532C15.9014 8.71701 16.2836 8.3981 16.5528 7.9916C16.822 7.5851 16.9665 7.10875 16.9684 6.6212V6.36361C16.9684 5.55993 17.2877 4.78916 17.856 4.22086C18.4242 3.65258 19.195 3.33331 19.9987 3.33331C20.8024 3.33331 21.5732 3.65258 22.1414 4.22086C22.7097 4.78916 23.029 5.55993 23.029 6.36361V6.49998C23.0309 6.98753 23.1754 7.46388 23.4447 7.87038C23.7139 8.27688 24.096 8.5958 24.5442 8.78786C25.0012 8.98955 25.508 9.04971 25.9995 8.9606C26.491 8.87148 26.9447 8.63716 27.3017 8.28786L27.3927 8.19695C27.674 7.9152 28.0082 7.6917 28.3762 7.5392C28.744 7.3867 29.1384 7.3082 29.5365 7.3082C29.9349 7.3082 30.3292 7.3867 30.697 7.5392C31.0649 7.6917 31.399 7.9152 31.6805 8.19695C31.9622 8.47838 32.1857 8.8126 32.3382 9.18046C32.4907 9.54833 32.5692 9.94266 32.5692 10.3409C32.5692 10.7391 32.4907 11.1334 32.3382 11.5013C32.1857 11.8692 31.9622 12.2034 31.6805 12.4848L31.5895 12.5757C31.2404 12.9328 31.006 13.3864 30.9169 13.8779C30.8277 14.3694 30.8879 14.8763 31.0895 15.3333V15.4545C31.2817 15.9027 31.6005 16.2849 32.007 16.5541C32.4135 16.8233 32.8899 16.9678 33.3775 16.9696H33.635C34.4387 16.9696 35.2095 17.289 35.7779 17.8573C36.346 18.4255 36.6654 19.1963 36.6654 20C36.6654 20.8036 36.346 21.5745 35.7779 22.1426C35.2095 22.711 34.4387 23.0303 33.635 23.0303H33.4987C33.0112 23.0321 32.5349 23.1766 32.1284 23.446C31.7219 23.7151 31.4029 24.0973 31.2109 24.5455Z" stroke="white" stroke-width="3" stroke-linecap="round" stroke-linejoin="round"/>
</svg>
