<svg width="38" height="38" fill="none" xmlns="http://www.w3.org/2000/svg"><path d="M27.665 22.333c.462 0 .693 0 .88.103a.884.884 0 0 1 .367.405c.083.197.062.405.02.823A13.333 13.333 0 1 1 14.334 9.068c.418-.042.627-.063.824.02.162.069.32.212.405.367.102.187.102.418.102.88V21c0 .467 0 .7.091.878.08.157.207.285.364.364.179.091.412.091.879.091h10.666ZM22.332 3.667c0-.462 0-.693.102-.88a.884.884 0 0 1 .406-.367c.196-.083.405-.062.823-.02A13.334 13.334 0 0 1 35.6 14.335c.042.418.063.627-.02.824a.885.885 0 0 1-.367.405c-.188.103-.418.103-.88.103H23.665c-.466 0-.7 0-.878-.091a.833.833 0 0 1-.364-.364c-.091-.179-.091-.412-.091-.879V3.667Z" stroke="#fff" stroke-width="3" stroke-linecap="round" stroke-linejoin="round"/></svg>