<svg width="40" height="40" fill="none" xmlns="http://www.w3.org/2000/svg"><path d="M18.332 7.5h12.167c1.866 0 2.8 0 3.513.363.627.32 1.137.83 1.457 1.457.363.713.363 1.646.363 3.513V15c0 1.553 0 2.33-.254 2.942a3.334 3.334 0 0 1-1.804 1.804c-.612.254-1.389.254-2.942.254m-9.167 12.5H9.5c-1.867 0-2.8 0-3.514-.363A3.333 3.333 0 0 1 4.53 30.68c-.364-.713-.364-1.646-.364-3.513V25c0-1.553 0-2.33.254-2.942a3.334 3.334 0 0 1 1.804-1.804C6.836 20 7.613 20 9.165 20m8 4.167h5.667c.467 0 .7 0 .878-.091a.832.832 0 0 0 .364-.364c.091-.179.091-.412.091-.879v-5.666c0-.467 0-.7-.09-.879a.833.833 0 0 0-.365-.364c-.178-.09-.411-.09-.878-.09h-5.667c-.466 0-.7 0-.878.09a.833.833 0 0 0-.364.364c-.091.179-.091.412-.091.879v5.666c0 .467 0 .7.09.879.08.157.208.284.365.364.178.09.412.09.878.09Zm12.5 12.5h5.667c.467 0 .7 0 .878-.091a.832.832 0 0 0 .364-.364c.091-.179.091-.412.091-.879v-5.666c0-.467 0-.7-.09-.879a.833.833 0 0 0-.365-.364c-.178-.09-.411-.09-.878-.09h-5.667c-.466 0-.7 0-.878.09a.833.833 0 0 0-.364.364c-.091.179-.091.412-.091.879v5.666c0 .467 0 .7.09.879.08.156.208.284.365.364.178.09.412.09.878.09Zm-25-25h5.667c.467 0 .7 0 .878-.091a.833.833 0 0 0 .364-.364c.091-.179.091-.412.091-.879V4.667c0-.467 0-.7-.09-.879a.833.833 0 0 0-.365-.364c-.178-.09-.411-.09-.878-.09H4.665c-.466 0-.7 0-.878.09a.833.833 0 0 0-.364.364c-.091.179-.091.412-.091.879v5.666c0 .467 0 .7.09.879.08.156.208.284.365.364.178.09.412.09.878.09Z" stroke="#fff" stroke-width="3" stroke-linecap="round" stroke-linejoin="round"/></svg>