<svg width="18" height="20" fill="none" xmlns="http://www.w3.org/2000/svg"><path d="M16.5 8.333h-15m10.833-6.666V5M5.667 1.667V5M5.5 18.333h7c1.4 0 2.1 0 2.635-.272a2.5 2.5 0 0 0 1.092-1.093c.273-.535.273-1.235.273-2.635v-7c0-1.4 0-2.1-.273-2.635a2.5 2.5 0 0 0-1.092-1.092c-.535-.273-1.235-.273-2.635-.273h-7c-1.4 0-2.1 0-2.635.273a2.5 2.5 0 0 0-1.093 1.092C1.5 5.233 1.5 5.933 1.5 7.333v7c0 1.4 0 2.1.272 2.635a2.5 2.5 0 0 0 1.093 1.093c.535.272 1.235.272 2.635.272Z" stroke="#18191A" stroke-width="1.5" stroke-linecap="round" stroke-linejoin="round"/></svg>