<svg width="36" height="34" fill="none" xmlns="http://www.w3.org/2000/svg"><path d="M2.166 12h31.667M14.666 2l-3.333 10 6.666 19.167L24.666 12 21.332 2m-2.309 28.77 14.932-17.916c.253-.304.38-.456.428-.625a.832.832 0 0 0 0-.458c-.049-.17-.175-.32-.428-.625L26.732 2.48c-.147-.177-.22-.265-.31-.328a.833.833 0 0 0-.263-.123C26.052 2 25.938 2 25.708 2H10.29c-.23 0-.344 0-.45.029a.833.833 0 0 0-.263.123c-.09.063-.164.151-.31.328l-7.223 8.666c-.253.304-.38.456-.428.625a.833.833 0 0 0 0 .458c.048.17.175.32.428.625L16.975 30.77c.352.422.527.633.738.71a.833.833 0 0 0 .572 0c.21-.077.387-.288.738-.71Z" stroke="#fff" stroke-width="3" stroke-linecap="round" stroke-linejoin="round"/></svg>