<svg width="37" height="38" fill="none" xmlns="http://www.w3.org/2000/svg"><path d="M18.5 9v26.667m13.333-18.334v13c0 1.867 0 2.8-.363 3.514a3.333 3.333 0 0 1-1.457 1.456c-.713.364-1.647.364-3.513.364h-16c-1.867 0-2.8 0-3.514-.364a3.333 3.333 0 0 1-1.456-1.456c-.364-.713-.364-1.647-.364-3.514v-13M18.5 9h-5.893a3.244 3.244 0 0 1-2.315-.976 3.364 3.364 0 0 1-.959-2.357c0-.884.345-1.732.959-2.357a3.244 3.244 0 0 1 2.315-.977C17.19 2.333 18.5 9 18.5 9Zm0 0h5.892c.869 0 1.701-.351 2.316-.976a3.365 3.365 0 0 0 .958-2.357c0-.884-.345-1.732-.959-2.357a3.245 3.245 0 0 0-2.315-.977C19.81 2.333 18.5 9 18.5 9ZM1.833 11.667v3c0 .933 0 1.4.182 1.756.16.314.414.569.728.729.357.181.823.181 1.757.181h28c.933 0 1.4 0 1.756-.181.314-.16.569-.415.729-.729.181-.356.181-.823.181-1.756v-3c0-.934 0-1.4-.181-1.757a1.667 1.667 0 0 0-.729-.728C33.9 9 33.433 9 32.5 9h-28c-.934 0-1.4 0-1.757.182-.314.16-.569.414-.728.728-.182.357-.182.823-.182 1.757Z" stroke="#fff" stroke-width="3" stroke-linecap="round" stroke-linejoin="round"/></svg>