<svg width="38" height="38" fill="none" xmlns="http://www.w3.org/2000/svg"><path d="M11.499 6.5a4.167 4.167 0 0 1 8.333 0V9h1.667c2.33 0 3.494 0 4.413.38a5 5 0 0 1 2.706 2.707c.38.918.38 2.083.38 4.413h2.5a4.167 4.167 0 1 1 0 8.333h-2.5v2.834c0 2.8 0 4.2-.544 5.27a4.999 4.999 0 0 1-2.185 2.185c-1.07.545-2.47.545-5.27.545h-1.167V32.75a3.75 3.75 0 0 0-7.5 0v2.917h-2c-2.8 0-4.2 0-5.27-.545a4.999 4.999 0 0 1-2.185-2.185c-.545-1.07-.545-2.47-.545-5.27v-2.834h2.5a4.167 4.167 0 0 0 0-8.333h-2.5c0-2.33 0-3.495.38-4.413A5 5 0 0 1 5.42 9.38C6.337 9 7.502 9 9.832 9h1.667V6.5Z" stroke="#fff" stroke-width="3" stroke-linecap="round" stroke-linejoin="round"/></svg>